<?xml version="1.0" encoding="UTF-8" standalone="no"?> <!-- Created with Vectornator for iOS (http://vectornator.io/) --><!DOCTYPE svg PUBLIC "-//W3C//DTD SVG 1.1//EN" "http://www.w3.org/Graphics/SVG/1.1/DTD/svg11.dtd">
<svg height="100%" style="fill-rule:evenodd;clip-rule:evenodd;stroke-linecap:round;stroke-linejoin:round;" xmlns:xlink="http://www.w3.org/1999/xlink" xmlns="http://www.w3.org/2000/svg" xml:space="preserve" width="100%" xmlns:vectornator="http://vectornator.io" version="1.1" viewBox="0 0 1024 1024">
<metadata>
<vectornator:setting key="GridSpacing" value="36"/>
<vectornator:setting key="SnapToPoints" value="0"/>
<vectornator:setting key="GuidesVisible" value="1"/>
<vectornator:setting key="RulersVisible" value="1"/>
<vectornator:setting key="CMYKEnabledKey" value="0"/>
<vectornator:setting key="SnapToEdges" value="0"/>
<vectornator:setting key="DisplayWhiteBackground" value="0"/>
<vectornator:setting key="SnapToGuides" value="1"/>
<vectornator:setting key="Units" value="Pixels"/>
<vectornator:setting key="DynamicGuides" value="0"/>
<vectornator:setting key="SnapToGrid" value="0"/>
<vectornator:setting key="New" value="1"/>
</metadata>
<defs/>
<g id="レイヤー 1" vectornator:layerName="レイヤー 1">
<path d="M544.756+229.82C537.819+229.82+530.923+232.059+525.631+236.601L466.475+287.382L515.631+380.914C524.834+377.704+534.669+375.883+544.943+375.882C594.861+375.882+635.318+417.03+635.318+467.757C635.318+518.485+594.861+559.601+544.943+559.601C495.026+559.601+454.569+518.485+454.568+467.757C454.568+454.128+457.546+441.233+462.787+429.601L374.662+366.132L313.068+419.007C302.483+428.092+293.912+446.865+293.912+460.945L293.912+690.382L293.912+919.851C293.912+933.931+305.12+945.32+318.975+945.32L544.756+945.32L770.537+945.32C784.392+945.32+795.631+933.931+795.631+919.851L795.631+690.382L795.631+460.945C795.631+446.865+787.06+428.092+776.475+419.007L563.912+236.601C558.619+232.059+551.693+229.82+544.756+229.82Z" fill="#000000" stroke-linecap="butt" opacity="1" stroke-linejoin="round"/>
</g>
<g id="レイヤー 2" vectornator:layerName="レイヤー 2">
<path d="M517.801+446.818L180.253+196.292C172.054+190.206+171.582+179.761+179.199+172.961L289.532+74.4633C297.149+67.6634+307.475+69.3125+312.595+78.1467L523.376+441.84C528.496+450.675+526+452.903+517.801+446.818Z" fill="#000000" stroke-linecap="butt" opacity="1" stroke-linejoin="round"/>
</g>
</svg>
