<?xml version="1.0" encoding="UTF-8" standalone="no"?> <!-- Created with Vectornator for iOS (http://vectornator.io/) --><!DOCTYPE svg PUBLIC "-//W3C//DTD SVG 1.1//EN" "http://www.w3.org/Graphics/SVG/1.1/DTD/svg11.dtd">
<svg height="100%" style="fill-rule:evenodd;clip-rule:evenodd;stroke-linecap:round;stroke-linejoin:round;" xmlns:xlink="http://www.w3.org/1999/xlink" xmlns="http://www.w3.org/2000/svg" xml:space="preserve" width="100%" xmlns:vectornator="http://vectornator.io" version="1.1" viewBox="0 0 100 100">
<defs/>
<g id="レイヤー 1" opacity="1" fill="#28ff65">
<path d="M3.33454+49.8404C3.33454+24.195+24.1242+3.40541+49.7695+3.40541C75.4148+3.40541+96.2044+24.195+96.2044+49.8404C96.2044+75.4857+75.4148+96.2753+49.7695+96.2753C24.1242+96.2753+3.33454+75.4857+3.33454+49.8404Z"/>
</g>
<g id="レイヤー 2">
<g opacity="1" fill="#d8fce2">
<path d="M19.1044+42.0917L80.3473+42.0917C83.661+42.0917+86.3473+44.778+86.3473+48.0917L86.3473+51.8542C86.3473+55.1679+83.661+57.8542+80.3473+57.8542L19.1044+57.8542C15.7906+57.8542+13.1044+55.1679+13.1044+51.8542L13.1044+48.0917C13.1044+44.778+15.7906+42.0917+19.1044+42.0917Z"/>
<path d="M47.596+12.5474L51.7762+12.5474C55.0899+12.5474+57.7762+15.2337+57.7762+18.5474L57.7762+79.6992C57.7762+83.0129+55.0899+85.6992+51.7762+85.6992L47.596+85.6992C44.2823+85.6992+41.596+83.0129+41.596+79.6992L41.596+18.5474C41.596+15.2337+44.2823+12.5474+47.596+12.5474Z"/>
</g>
</g>
</svg>
